HIERARCHY
ROOT Hips
{
	OFFSET 0.000000 0.000000 0.000000
	CHANNELS 6 Xposition Yposition Zposition Zrotation Yrotation Xrotation 
	JOINT LHipJoint
	{
		OFFSET 0.000000 0.000000 0.000000
		CHANNELS 3 Zrotation Yrotation Xrotation
		JOINT LeftUpLeg
		{
			OFFSET 1.363060 -1.794630 0.839290
			CHANNELS 3 Zrotation Yrotation Xrotation
			JOINT LeftLeg
			{
				OFFSET 2.448110 -6.726130 0.000000
				CHANNELS 3 Zrotation Yrotation Xrotation
				JOINT LeftFoot
				{
					OFFSET 2.562200 -7.039590 0.000000
					CHANNELS 3 Zrotation Yrotation Xrotation
					JOINT LeftToeBase
					{
						OFFSET 0.157640 -0.433110 2.322550
						CHANNELS 3 Zrotation Yrotation Xrotation
						End Site
						{
							OFFSET 0.000000 0.000000 0.000000
						}
					}
				}
			}
		}
	}
	JOINT RHipJoint
	{
		OFFSET 0.000000 0.000000 0.000000
		CHANNELS 3 Zrotation Yrotation Xrotation
		JOINT RightUpLeg
		{
			OFFSET -1.305520 -1.794630 0.839290
			CHANNELS 3 Zrotation Yrotation Xrotation
			JOINT RightLeg
			{
				OFFSET -2.542530 -6.985550 0.000000
				CHANNELS 3 Zrotation Yrotation Xrotation
				JOINT RightFoot
				{
					OFFSET -2.568260 -7.056230 0.000000
					CHANNELS 3 Zrotation Yrotation Xrotation
					JOINT RightToeBase
					{
						OFFSET -0.164730 -0.452590 2.363150
						CHANNELS 3 Zrotation Yrotation Xrotation
						End Site
						{
							OFFSET 0.000000 0.000000 0.000000
						}
					}
				}
			}
		}
	}
	JOINT LowerBack
	{
		OFFSET 0.000000 0.000000 0.000000
		CHANNELS 3 Zrotation Yrotation Xrotation
		JOINT Spine
		{
			OFFSET 0.028270 2.035590 -0.193380
			CHANNELS 3 Zrotation Yrotation Xrotation
			JOINT Spine1
			{
				OFFSET 0.056720 2.048850 -0.042750
				CHANNELS 3 Zrotation Yrotation Xrotation
				JOINT Neck
				{
					OFFSET 0.000000 0.000000 0.000000
					CHANNELS 3 Zrotation Yrotation Xrotation
					JOINT Neck1
					{
						OFFSET -0.054170 1.746240 0.172020
						CHANNELS 3 Zrotation Yrotation Xrotation
						JOINT Head
						{
							OFFSET 0.104070 1.761360 -0.123970
							CHANNELS 3 Zrotation Yrotation Xrotation
							End Site
							{
								OFFSET 0.000000 0.000000 0.000000
							}
						}
					}
				}
				JOINT LeftShoulder
				{
					OFFSET 0.000000 0.000000 0.000000
					CHANNELS 3 Zrotation Yrotation Xrotation
					JOINT LeftArm
					{
						OFFSET 3.362410 1.200890 -0.311210
						CHANNELS 3 Zrotation Yrotation Xrotation
						JOINT LeftForeArm
						{
							OFFSET 4.983000 -0.000000 -0.000000
							CHANNELS 3 Zrotation Yrotation Xrotation
							JOINT LeftHand
							{
								OFFSET 3.483560 -0.000000 -0.000000
								CHANNELS 3 Zrotation Yrotation Xrotation
								JOINT LeftFingerBase
								{
									OFFSET 0.000000 0.000000 0.000000
									CHANNELS 3 Zrotation Yrotation Xrotation
									JOINT LeftHandIndex1
									{
										OFFSET 0.715260 -0.000000 -0.000000
										CHANNELS 3 Zrotation Yrotation Xrotation
										End Site
										{
											OFFSET 0.000000 0.000000 0.000000
										}
									}
								}
								JOINT LThumb
								{
									OFFSET 0.000000 0.000000 0.000000
									CHANNELS 3 Zrotation Yrotation Xrotation
									End Site
									{
										OFFSET 0.000000 0.000000 0.000000
									}
								}
							}
						}
					}
				}
				JOINT RightShoulder
				{
					OFFSET 0.000000 0.000000 0.000000
					CHANNELS 3 Zrotation Yrotation Xrotation
					JOINT RightArm
					{
						OFFSET -3.136600 1.374050 -0.404650
						CHANNELS 3 Zrotation Yrotation Xrotation
						JOINT RightForeArm
						{
							OFFSET -5.241900 -0.000000 -0.000000
							CHANNELS 3 Zrotation Yrotation Xrotation
							JOINT RightHand
							{
								OFFSET -3.444170 -0.000000 -0.000000
								CHANNELS 3 Zrotation Yrotation Xrotation
								JOINT RightFingerBase
								{
									OFFSET 0.000000 0.000000 0.000000
									CHANNELS 3 Zrotation Yrotation Xrotation
									JOINT RightHandIndex1
									{
										OFFSET -0.622530 -0.000000 -0.000000
										CHANNELS 3 Zrotation Yrotation Xrotation
										End Site
										{
											OFFSET 0.000000 0.000000 0.000000
										}
									}
								}
								JOINT RThumb
								{
									OFFSET 0.000000 0.000000 0.000000
									CHANNELS 3 Zrotation Yrotation Xrotation
									End Site
									{
										OFFSET 0.000000 0.000000 0.000000
									}
								}
							}
						}
					}
				}
			}
		}
	}
}
MOTION
Frames: 10
Frame Time: 0.008333
-13.383808 18.021521 -40.922574 7.005968 71.214384 6.717069 -0.699125 2.095218 2.655468 -14.573053 -6.840323 -5.496278 3.609612 10.775571 33.079711 2.423992 -28.975730 -34.058338 0.596300 4.943700 13.748000 -2.889626 -2.599164 2.326839 20.868708 -3.451597 -26.946350 -8.679581 -14.948685 52.367504 -4.887801 13.267975 -41.948694 -1.128900 6.748600 -18.972700 2.418631 -3.428982 7.595516 0.554121 -4.674700 15.012744 0.813590 -2.178596 -11.065620 -6.359635 -11.431475 -20.780460 7.221722 -13.655646 37.442394 -0.556700 -3.731800 17.422500 1.560969 -7.441145 -0.591515 -95.470622 -10.424623 76.131068 46.853968 -44.586493 -25.743285 0.925289 -1.014843 -34.487383 26.220350 17.843892 9.215900 -7.125000 0.000000 0.000000 -2.294300 51.357900 -0.359500 1.286650 11.670981 1.365785 73.801577 0.404411 26.697821 -27.575286 28.711233 -8.037281 0.697862 -0.203292 -16.142289 -37.593671 -2.536547 1.591900 7.125000 0.000000 0.000000 -9.379600 -32.456500 -2.914700 
-13.366745 18.062377 -40.623309 6.354688 71.725591 6.106558 -0.672276 2.089275 2.647280 -14.618768 -7.308858 -4.800438 3.445431 10.502914 32.166461 2.762202 -28.332792 -35.264249 0.500400 4.535100 12.587100 -2.937249 -2.580443 2.299646 21.073990 -2.415662 -25.958663 -8.455367 -14.740695 51.428203 -5.120166 13.005594 -42.883744 -0.997800 6.356800 -17.823300 2.523625 -3.415754 7.477111 0.604522 -4.657109 14.889529 0.759475 -2.173190 -11.020322 -6.536255 -11.607475 -20.576591 7.498117 -13.948820 37.229760 -0.478300 -3.846900 17.292600 1.550258 -7.412545 -0.573865 -95.127844 -9.965042 76.362267 46.081240 -44.208216 -25.053399 0.897411 -1.000905 -34.383706 25.620398 17.557905 8.837600 -7.125000 0.000000 0.000000 -2.810200 50.901000 -0.408900 1.309861 11.650690 1.344285 74.114949 0.194562 26.465462 -27.571357 28.705666 -8.028456 0.692498 -0.200389 -16.051765 -37.370976 -2.497904 1.555600 7.125000 0.000000 0.000000 -9.194100 -32.414900 -2.865100 
-13.349397 18.094417 -40.329447 6.407677 72.221624 6.175380 -0.648899 2.072600 2.636944 -14.935356 -7.832746 -4.168451 3.356374 10.263056 31.424061 3.716486 -25.272993 -38.239794 0.171000 2.663700 7.343900 -2.984934 -2.566942 2.277672 21.019951 -1.420555 -25.016299 -8.253589 -14.556547 50.597588 -5.375646 12.957113 -43.927535 -0.897500 6.038000 -16.894700 2.459867 -3.488211 7.360177 0.366026 -4.765037 14.654851 0.869359 -2.217677 -10.976700 -6.518426 -11.614049 -20.126604 7.703071 -14.062027 36.977744 -0.414900 -3.887100 17.061900 1.560387 -7.393214 -0.544019 -94.718105 -9.330966 76.232335 45.353778 -43.841294 -24.388631 0.871321 -0.984518 -34.219574 25.086311 17.264053 8.488700 -7.125000 0.000000 0.000000 -3.257600 50.451100 -0.438000 1.384800 11.614201 1.313003 74.526379 0.024809 26.259711 -27.523705 28.652492 -7.992873 0.681358 -0.201808 -16.132985 -36.973287 -2.152208 1.272600 7.125000 0.000000 0.000000 -8.830000 -31.985600 -2.841600 
-13.332524 18.117263 -40.034447 6.077359 72.524386 6.047336 -0.641324 2.060626 2.619415 -15.268429 -8.720719 -3.638475 3.212471 10.043313 30.698404 3.497733 -26.566445 -37.727027 0.380900 3.963800 10.974800 -3.029414 -2.559233 2.261203 21.122860 -0.371774 -24.241208 -8.047445 -14.369992 49.756057 -5.624334 13.157875 -44.933218 -0.814500 5.759200 -16.087300 2.399645 -3.414385 7.051119 0.348847 -4.704614 14.442616 0.906799 -2.182358 -10.821467 -6.701942 -11.770829 -19.815388 7.994896 -14.336279 36.761140 -0.323800 -3.996200 16.914200 1.546926 -7.380591 -0.517519 -94.318024 -8.868834 76.400361 44.587860 -43.435704 -23.699307 0.842396 -0.968141 -34.261044 24.653196 16.985322 8.194200 -7.125000 0.000000 0.000000 -3.597500 50.038300 -0.447300 1.433519 11.607134 1.289613 74.912099 -0.103144 25.945963 -27.405578 28.487748 -7.864455 0.635792 -0.186935 -15.616142 -34.877495 -2.431184 1.412500 7.125000 0.000000 0.000000 -7.146700 -32.360900 -2.226500 
-13.313091 18.149019 -39.753098 6.552710 73.117619 6.569871 -0.638853 2.056540 2.622489 -15.807668 -9.682118 -3.082940 3.126735 9.844806 30.084635 3.842878 -25.562295 -38.829444 0.364600 3.878700 10.735600 -3.081081 -2.541525 2.247218 21.011776 0.817492 -23.259867 -7.909331 -14.195950 48.978334 -6.121012 10.201102 -46.883468 -1.205800 6.966500 -19.616200 2.507669 -3.442729 6.870959 0.025874 -4.723353 14.367807 0.898718 -2.206139 -10.718911 -6.947484 -12.043055 -19.745213 8.364828 -14.754151 36.602155 -0.223600 -4.152900 16.873200 1.572744 -7.370722 -0.491956 -93.928577 -8.565373 76.687284 43.771954 -42.994731 -22.969342 0.810616 -0.950793 -34.295837 24.233346 16.694073 7.904600 -7.125000 0.000000 0.000000 -3.916600 49.614400 -0.446200 1.498269 11.612006 1.261189 75.402488 -0.118307 25.059781 -27.321968 28.389121 -7.787141 0.622293 -0.182384 -15.425259 -34.220646 -2.377532 1.352000 7.125000 0.000000 0.000000 -6.606100 -32.304100 -2.065100 
-13.295744 18.175751 -39.461132 6.303822 73.533423 6.295341 -0.628308 2.048777 2.621447 -16.039881 -10.310760 -2.586233 3.063282 9.692017 29.606734 4.108385 -24.497191 -39.608842 0.298400 3.512200 9.708100 -3.137116 -2.516821 2.231960 21.228760 2.252049 -22.093121 -7.759277 -14.020594 48.219053 -6.574706 8.684919 -48.688886 -1.408600 7.507000 -21.226300 2.528879 -3.457605 6.797710 -0.120933 -4.742072 14.296333 0.930717 -2.216258 -10.677238 -7.158833 -12.228583 -19.539975 8.714240 -15.066837 36.459512 -0.111100 -4.266100 16.805100 1.585274 -7.350433 -0.469576 -93.524892 -8.107238 76.641564 42.939247 -42.532252 -22.215023 0.779773 -0.932719 -34.331207 23.816268 16.306173 7.581500 -7.125000 0.000000 0.000000 -4.209900 49.090600 -0.425400 1.548397 11.608333 1.231709 75.792434 -0.050741 24.543208 -27.129121 28.174969 -7.653634 0.614396 -0.177406 -15.496466 -33.539938 -2.298798 1.272500 7.125000 0.000000 0.000000 -6.047900 -32.212100 -1.902300 
-13.280103 18.199829 -39.166701 6.084981 73.699977 6.169600 -0.619651 2.042122 2.610666 -16.213263 -10.684197 -2.451548 3.053885 9.631662 29.429898 4.405781 -23.297433 -40.515849 0.248700 3.209300 8.861900 -3.157551 -2.509940 2.203141 21.279755 2.488557 -21.682445 -7.613239 -13.873481 47.563494 -6.710638 8.185192 -49.217286 -1.420600 7.537500 -21.317800 2.491694 -3.425392 6.691895 -0.371022 -4.708774 14.019371 1.016907 -2.190082 -10.645417 -7.369427 -12.366240 -19.147251 9.090671 -15.337798 36.353936 0.026600 -4.360400 16.705800 1.588340 -7.324542 -0.431822 -93.094571 -7.460389 76.377818 42.102111 -42.046927 -21.457373 0.751440 -0.913363 -34.322586 23.310718 15.924261 7.236000 -7.125000 0.000000 0.000000 -4.591600 48.562400 -0.404300 1.646369 11.599597 1.192000 76.510248 -0.143121 23.822643 -26.914129 27.943361 -7.517247 0.613063 -0.174337 -15.001174 -33.118218 -2.377490 1.312300 7.125000 0.000000 0.000000 -5.715300 -32.312700 -1.782900 
-13.261713 18.223527 -38.872933 6.088494 73.800098 6.265723 -0.629473 2.068103 2.636755 -16.428238 -11.130286 -2.400342 3.067371 9.618773 29.391677 4.641241 -22.053108 -41.191499 0.208700 2.941100 8.114800 -3.181122 -2.484502 2.180984 21.213098 2.651812 -21.309584 -7.479752 -13.724962 46.963972 -6.743090 8.101542 -49.311155 -1.365900 7.396900 -20.896600 3.203593 -3.688971 6.424025 -1.594120 -4.922805 13.783124 0.844872 -2.354157 -10.489360 -7.534746 -12.298457 -18.864147 9.695666 -15.350287 36.342110 0.295200 -4.302200 16.702800 1.720440 -7.317412 -0.358298 -92.277766 -6.724223 75.378629 41.395231 -41.627045 -20.733414 0.718449 -0.873858 -34.329787 23.017306 15.491162 6.940300 -7.125000 0.000000 0.000000 -4.758900 47.995100 -0.352400 1.847938 11.607588 1.140236 77.478241 0.090582 23.655440 -26.610459 27.607729 -7.363153 0.648219 -0.169308 -14.760518 -33.579624 -2.496381 1.413600 7.125000 0.000000 0.000000 -6.124000 -32.456700 -1.890200 
-13.244934 18.216038 -38.581252 6.424919 74.042478 6.656798 -0.636155 2.069780 2.650971 -16.754460 -11.638210 -2.406681 3.131818 9.648577 29.531987 5.021359 -19.875809 -42.298244 0.055200 1.515900 4.169500 -3.185849 -2.505029 2.145451 21.391888 1.545876 -21.352685 -7.348173 -13.608361 46.473781 -6.816450 9.161977 -49.518617 -1.092800 6.643300 -18.662900 3.070462 -3.644398 6.190248 -1.919807 -4.895350 13.695068 0.979043 -2.333310 -10.332063 -7.782147 -12.506688 -18.732145 10.032197 -15.674648 36.284692 0.408700 -4.420700 16.713200 1.742837 -7.306496 -0.327631 -91.852558 -6.239548 75.140152 40.491640 -41.059870 -19.920261 0.687305 -0.853005 -34.414430 22.596305 15.079204 6.626300 -7.125000 0.000000 0.000000 -5.045700 47.452300 -0.306100 1.926581 11.625073 1.102169 78.129807 0.157450 22.773592 -26.408672 27.365422 -7.201385 0.619942 -0.151519 -14.662132 -32.094449 -2.546119 1.390900 7.125000 0.000000 0.000000 -4.910200 -32.531700 -1.504000 
-13.227492 18.235850 -38.283787 5.834089 74.008724 6.119004 -0.626716 2.060010 2.632511 -16.727877 -11.987150 -2.310268 3.145479 9.679634 29.636910 5.006883 -20.269244 -42.313150 0.161600 2.589900 7.138900 -3.186299 -2.496963 2.120521 21.516030 1.672516 -21.078914 -7.254016 -13.516251 46.048307 -6.332373 8.869056 -47.605647 -0.742100 5.502900 -15.348800 2.900168 -3.478652 6.171580 -1.871883 -4.712040 13.493369 1.074982 -2.219941 -10.350270 -8.142336 -12.839231 -18.630408 10.285639 -16.138466 36.315306 0.478100 -4.615500 16.764200 1.703995 -7.271083 -0.308416 -91.623486 -5.688833 74.909487 39.474917 -40.397408 -19.023501 0.650607 -0.842182 -34.386167 22.733377 15.395844 6.790200 -7.125000 0.000000 0.000000 -4.955500 47.775900 -0.340200 1.978986 11.629781 1.074844 78.741527 0.059328 21.887074 -26.190277 27.141066 -7.077790 0.641676 -0.147427 -14.506190 -32.286933 -2.707632 1.505100 7.125000 0.000000 0.000000 -5.092000 -32.724500 -1.536300 
